<!DOCTYPE svg PUBLIC "-//W3C//DTD SVG 1.1//EN" "http://www.w3.org/Graphics/SVG/1.1/DTD/svg11.dtd">
<!-- Uploaded to: SVG Repo, www.svgrepo.com, Transformed by: SVG Repo Mixer Tools -->
<svg height="800px" width="800px" version="1.1" id="_x32_" xmlns="http://www.w3.org/2000/svg" xmlns:xlink="http://www.w3.org/1999/xlink" viewBox="0 0 512 512" xml:space="preserve" fill="#f7f7f7">
<g id="SVGRepo_bgCarrier" stroke-width="0"/>
<g id="SVGRepo_tracerCarrier" stroke-linecap="round" stroke-linejoin="round"/>
<g id="SVGRepo_iconCarrier"> <style type="text/css"> .st0{fill:#f7f7f7;} </style> <g> <path class="st0" d="M149.193,103.525c15.995,0,28.964-12.97,28.964-28.973V28.964C178.157,12.97,165.188,0,149.193,0 C133.19,0,120.22,12.97,120.22,28.964v45.588C120.22,90.556,133.19,103.525,149.193,103.525z"/> <path class="st0" d="M362.815,103.525c15.995,0,28.964-12.97,28.964-28.973V28.964C391.78,12.97,378.81,0,362.815,0 c-16.002,0-28.972,12.97-28.972,28.964v45.588C333.843,90.556,346.813,103.525,362.815,103.525z"/> <path class="st0" d="M435.164,41.287h-17.925v33.265c0,30.018-24.414,54.432-54.423,54.432c-30.017,0-54.431-24.414-54.431-54.432 V41.287H203.616v33.265c0,30.018-24.415,54.432-54.423,54.432c-30.016,0-54.432-24.414-54.432-54.432V41.287H76.836 c-38.528,0-69.763,31.235-69.763,69.763v331.187C7.073,480.765,38.309,512,76.836,512h358.328 c38.528,0,69.763-31.235,69.763-69.763V111.05C504.927,72.522,473.692,41.287,435.164,41.287z M450.023,429.988 c0,17.826-14.503,32.329-32.329,32.329H94.306c-17.826,0-32.329-14.503-32.329-32.329V170.876h388.047V429.988z"/> <path class="st0" d="M146.201,381.665h88.219c2.527,0,4.359-1.848,4.359-4.376v-18.473c0-2.527-1.832-4.376-4.359-4.376h-54.207 l43.309-52.509c10.417-12.48,15.257-24.572,15.257-38.047c0-27.481-19.384-45.937-48.232-45.937 c-30.58,0-46.492,19.832-48.696,39.374c-0.208,1.276,0.058,2.486,0.737,3.43c0.654,0.912,1.649,1.517,2.743,1.691l20.395,4.177 l0.829,0.074c2.122,0,3.713-1.425,4.085-3.687c1.542-11.503,8.354-17.835,19.202-17.835c11.371,0,18.73,7.342,18.73,18.713 c0,7.608-2.893,14.404-9.714,22.74l-55.276,68.884c-1.468,1.458-1.749,2.793-1.749,4.459v17.32 C141.834,379.817,143.665,381.665,146.201,381.665z"/> <path class="st0" d="M264.686,335.024c0,28.956,21.654,49.177,52.657,49.177c31.119,0,52.865-20.221,52.865-49.177 c0-15.597-6.845-29.586-18.456-37.94c7.335-5.909,14.992-17.263,14.992-32.27c0-22.575-15.464-46.866-49.401-46.866 c-32.287,0-49.169,23.569-49.169,46.866c0,15.008,7.65,26.362,14.975,32.27C271.548,305.438,264.686,319.427,264.686,335.024z M317.343,245.172c11.113,0,19.168,8.064,19.168,19.177c0,9.307-6.712,19.193-19.168,19.193c-10.815,0-18.961-8.246-18.961-19.193 C298.382,253.236,306.354,245.172,317.343,245.172z M317.343,310.758c13.55,0,22.658,9.291,22.658,23.105 c0,13.832-9.108,23.113-22.658,23.113c-13.417,0-22.425-9.281-22.425-23.113C294.918,320.049,303.926,310.758,317.343,310.758z"/> </g> </g>
</svg>