<!DOCTYPE svg PUBLIC "-//W3C//DTD SVG 1.1//EN" "http://www.w3.org/Graphics/SVG/1.1/DTD/svg11.dtd">
<!-- Uploaded to: SVG Repo, www.svgrepo.com, Transformed by: SVG Repo Mixer Tools -->
<svg version="1.1" id="_x32_" xmlns="http://www.w3.org/2000/svg" xmlns:xlink="http://www.w3.org/1999/xlink" viewBox="0 0 512 512" xml:space="preserve" width="800px" height="800px" fill="#f7f7f7">
<g id="SVGRepo_bgCarrier" stroke-width="0"/>
<g id="SVGRepo_tracerCarrier" stroke-linecap="round" stroke-linejoin="round"/>
<g id="SVGRepo_iconCarrier"> <style type="text/css"> .st0{fill:<!-- Uploaded to: SVG Repo, www.svgrepo.com, Transformed by: SVG Repo Mixer Tools -->
<svg viewBox="-4 0 32 32" version="1.1" xmlns="http://www.w3.org/2000/svg" xmlns:xlink="http://www.w3.org/1999/xlink" xmlns:sketch="http://www.bohemiancoding.com/sketch/ns" fill="#f7f7f7" stroke="#f7f7f7">
<g id="SVGRepo_bgCarrier" stroke-width="0"/>
<g id="SVGRepo_tracerCarrier" stroke-linecap="round" stroke-linejoin="round"/>
<g id="SVGRepo_iconCarrier"> <title>location</title> <desc>Created with Sketch Beta.</desc> <defs> </defs> <g id="Page-1" stroke="none" stroke-width="1" fill="none" fill-rule="evenodd" sketch:type="MSPage"> <g id="Icon-Set-Filled" sketch:type="MSLayerGroup" transform="translate(-106.000000, -413.000000)" fill="#f7f7f7"> <path d="M118,422 C116.343,422 115,423.343 115,425 C115,426.657 116.343,428 118,428 C119.657,428 121,426.657 121,425 C121,423.343 119.657,422 118,422 L118,422 Z M118,430 C115.239,430 113,427.762 113,425 C113,422.238 115.239,420 118,420 C120.761,420 123,422.238 123,425 C123,427.762 120.761,430 118,430 L118,430 Z M118,413 C111.373,413 106,418.373 106,425 C106,430.018 116.005,445.011 118,445 C119.964,445.011 130,429.95 130,425 C130,418.373 124.627,413 118,413 L118,413 Z" id="location" sketch:type="MSShapeGroup"> </path> </g> </g> </g>
</svg>;} </style> <g> <path class="st0" d="M452.76,0H59.241C39.228,0,22.849,16.386,22.849,36.4V429.91c0,20.014,16.379,36.392,36.392,36.392H452.76 c20.013,0,36.391-16.378,36.391-36.392V36.4C489.151,16.386,472.773,0,452.76,0z M256,411.711 c-98.612,0-178.559-79.94-178.559-178.56c0-98.612,79.947-178.56,178.559-178.56c98.613,0,178.56,79.948,178.56,178.56 C434.56,331.771,354.613,411.711,256,411.711z"/> <polygon class="st0" points="73.424,512 114.922,512 125.447,481.667 62.899,481.667 "/> <polygon class="st0" points="401.453,512 442.951,512 453.484,481.667 390.928,481.667 "/> <rect x="250.703" y="83.842" class="st0" width="10.586" height="23.29"/> <rect x="250.703" y="359.177" class="st0" width="10.586" height="23.291"/> <rect x="390.486" y="227.862" class="st0" width="23.298" height="10.586"/> <rect x="98.209" y="227.862" class="st0" width="23.298" height="10.586"/> <polygon class="st0" points="375.617,169.048 391.964,159.613 387.666,152.182 371.326,161.618 "/> <polygon class="st0" points="120.036,306.697 124.335,314.128 140.675,304.692 136.384,297.261 "/> <polygon class="st0" points="320.111,113.542 327.534,117.826 336.969,101.485 329.538,97.194 "/> <polygon class="st0" points="175.031,364.817 182.454,369.116 191.89,352.775 184.466,348.484 "/> <polygon class="st0" points="191.89,113.542 182.454,97.194 175.031,101.485 184.46,117.826 "/> <polygon class="st0" points="320.111,352.767 329.538,369.116 336.969,364.817 327.534,348.484 "/> <polygon class="st0" points="120.036,159.613 136.384,169.041 140.675,161.618 124.335,152.182 "/> <polygon class="st0" points="371.326,304.692 387.666,314.12 391.964,306.697 375.617,297.261 "/> <path class="st0" d="M333.89,162.09c-2.858-3.063-7.24-3.788-10.235-1.715l-69.179,47.71l-97.766-83.812 c-0.93-0.785-2.431-0.656-3.475,0.32c-1.044,0.976-1.281,2.454-0.556,3.438l79.147,106.904c0.274,5.495,2.561,11.173,6.859,15.792 c8.818,9.465,22.658,10.891,30.92,3.193c1.319-1.227,2.408-2.599,3.285-4.093l61.976-77.409 C337.137,169.559,336.733,165.146,333.89,162.09z M218.64,206.53l-30.95-41.811c-0.564-0.754-0.358-1.897,0.435-2.652 c0.808-0.747,1.966-0.869,2.682-0.251l39.502,33.846L218.64,206.53z M247.457,242.564c-4.298-4.626-4.032-11.86,0.587-16.158 c4.618-4.298,11.844-4.039,16.142,0.58c4.298,4.618,4.039,11.843-0.579,16.141C258.988,247.426,251.763,247.182,247.457,242.564z"/> </g> </g>
</svg>